<svg xmlns="http://www.w3.org/2000/svg" viewBox="0 0 1163 279" width="1163" height="279">
<rect width="100%" height="100%" fill="#0c0d12"/>
<rect x="96" y="44" width="26" height="26" fill="#5B8DEF" stroke="#0c0d12" stroke-width="1"/>
<polygon points="96,44 122,44 131,35 105,35" fill="#6facff" stroke="#0c0d12" stroke-width="1"/>
<polygon points="122,44 131,35 131,61 122,70" fill="#324d83" stroke="#0c0d12" stroke-width="1"/>
<rect x="122" y="44" width="26" height="26" fill="#5B8DEF" stroke="#0c0d12" stroke-width="1"/>
<polygon points="122,44 148,44 157,35 131,35" fill="#6facff" stroke="#0c0d12" stroke-width="1"/>
<polygon points="148,44 157,35 157,61 148,70" fill="#324d83" stroke="#0c0d12" stroke-width="1"/>
<rect x="96" y="96" width="26" height="26" fill="#5B8DEF" stroke="#0c0d12" stroke-width="1"/>
<polygon points="96,96 122,96 131,87 105,87" fill="#6facff" stroke="#0c0d12" stroke-width="1"/>
<polygon points="122,96 131,87 131,113 122,122" fill="#324d83" stroke="#0c0d12" stroke-width="1"/>
<rect x="122" y="96" width="26" height="26" fill="#5B8DEF" stroke="#0c0d12" stroke-width="1"/>
<polygon points="122,96 148,96 157,87 131,87" fill="#6facff" stroke="#0c0d12" stroke-width="1"/>
<polygon points="148,96 157,87 157,113 148,122" fill="#324d83" stroke="#0c0d12" stroke-width="1"/>
<rect x="96" y="122" width="26" height="26" fill="#5B8DEF" stroke="#0c0d12" stroke-width="1"/>
<polygon points="96,122 122,122 131,113 105,113" fill="#6facff" stroke="#0c0d12" stroke-width="1"/>
<polygon points="122,122 131,113 131,139 122,148" fill="#324d83" stroke="#0c0d12" stroke-width="1"/>
<rect x="122" y="122" width="26" height="26" fill="#5B8DEF" stroke="#0c0d12" stroke-width="1"/>
<polygon points="122,122 148,122 157,113 131,113" fill="#6facff" stroke="#0c0d12" stroke-width="1"/>
<polygon points="148,122 157,113 157,139 148,148" fill="#324d83" stroke="#0c0d12" stroke-width="1"/>
<rect x="96" y="148" width="26" height="26" fill="#5B8DEF" stroke="#0c0d12" stroke-width="1"/>
<polygon points="96,148 122,148 131,139 105,139" fill="#6facff" stroke="#0c0d12" stroke-width="1"/>
<polygon points="122,148 131,139 131,165 122,174" fill="#324d83" stroke="#0c0d12" stroke-width="1"/>
<rect x="122" y="148" width="26" height="26" fill="#5B8DEF" stroke="#0c0d12" stroke-width="1"/>
<polygon points="122,148 148,148 157,139 131,139" fill="#6facff" stroke="#0c0d12" stroke-width="1"/>
<polygon points="148,148 157,139 157,165 148,174" fill="#324d83" stroke="#0c0d12" stroke-width="1"/>
<rect x="44" y="174" width="26" height="26" fill="#5B8DEF" stroke="#0c0d12" stroke-width="1"/>
<polygon points="44,174 70,174 79,165 53,165" fill="#6facff" stroke="#0c0d12" stroke-width="1"/>
<polygon points="70,174 79,165 79,191 70,200" fill="#324d83" stroke="#0c0d12" stroke-width="1"/>
<rect x="70" y="174" width="26" height="26" fill="#5B8DEF" stroke="#0c0d12" stroke-width="1"/>
<polygon points="70,174 96,174 105,165 79,165" fill="#6facff" stroke="#0c0d12" stroke-width="1"/>
<polygon points="96,174 105,165 105,191 96,200" fill="#324d83" stroke="#0c0d12" stroke-width="1"/>
<rect x="96" y="174" width="26" height="26" fill="#5B8DEF" stroke="#0c0d12" stroke-width="1"/>
<polygon points="96,174 122,174 131,165 105,165" fill="#6facff" stroke="#0c0d12" stroke-width="1"/>
<polygon points="122,174 131,165 131,191 122,200" fill="#324d83" stroke="#0c0d12" stroke-width="1"/>
<rect x="122" y="174" width="26" height="26" fill="#5B8DEF" stroke="#0c0d12" stroke-width="1"/>
<polygon points="122,174 148,174 157,165 131,165" fill="#6facff" stroke="#0c0d12" stroke-width="1"/>
<polygon points="148,174 157,165 157,191 148,200" fill="#324d83" stroke="#0c0d12" stroke-width="1"/>
<rect x="44" y="200" width="26" height="26" fill="#5B8DEF" stroke="#0c0d12" stroke-width="1"/>
<polygon points="44,200 70,200 79,191 53,191" fill="#6facff" stroke="#0c0d12" stroke-width="1"/>
<polygon points="70,200 79,191 79,217 70,226" fill="#324d83" stroke="#0c0d12" stroke-width="1"/>
<rect x="70" y="200" width="26" height="26" fill="#5B8DEF" stroke="#0c0d12" stroke-width="1"/>
<polygon points="70,200 96,200 105,191 79,191" fill="#6facff" stroke="#0c0d12" stroke-width="1"/>
<polygon points="96,200 105,191 105,217 96,226" fill="#324d83" stroke="#0c0d12" stroke-width="1"/>
<rect x="226" y="44" width="26" height="26" fill="#26C2A8" stroke="#0c0d12" stroke-width="1"/>
<polygon points="226,44 252,44 261,35 235,35" fill="#2eeccc" stroke="#0c0d12" stroke-width="1"/>
<polygon points="252,44 261,35 261,61 252,70" fill="#146a5c" stroke="#0c0d12" stroke-width="1"/>
<rect x="252" y="44" width="26" height="26" fill="#26C2A8" stroke="#0c0d12" stroke-width="1"/>
<polygon points="252,44 278,44 287,35 261,35" fill="#2eeccc" stroke="#0c0d12" stroke-width="1"/>
<polygon points="278,44 287,35 287,61 278,70" fill="#146a5c" stroke="#0c0d12" stroke-width="1"/>
<rect x="278" y="44" width="26" height="26" fill="#26C2A8" stroke="#0c0d12" stroke-width="1"/>
<polygon points="278,44 304,44 313,35 287,35" fill="#2eeccc" stroke="#0c0d12" stroke-width="1"/>
<polygon points="304,44 313,35 313,61 304,70" fill="#146a5c" stroke="#0c0d12" stroke-width="1"/>
<rect x="200" y="70" width="26" height="26" fill="#26C2A8" stroke="#0c0d12" stroke-width="1"/>
<polygon points="200,70 226,70 235,61 209,61" fill="#2eeccc" stroke="#0c0d12" stroke-width="1"/>
<polygon points="226,70 235,61 235,87 226,96" fill="#146a5c" stroke="#0c0d12" stroke-width="1"/>
<rect x="304" y="70" width="26" height="26" fill="#26C2A8" stroke="#0c0d12" stroke-width="1"/>
<polygon points="304,70 330,70 339,61 313,61" fill="#2eeccc" stroke="#0c0d12" stroke-width="1"/>
<polygon points="330,70 339,61 339,87 330,96" fill="#146a5c" stroke="#0c0d12" stroke-width="1"/>
<rect x="200" y="96" width="26" height="26" fill="#26C2A8" stroke="#0c0d12" stroke-width="1"/>
<polygon points="200,96 226,96 235,87 209,87" fill="#2eeccc" stroke="#0c0d12" stroke-width="1"/>
<polygon points="226,96 235,87 235,113 226,122" fill="#146a5c" stroke="#0c0d12" stroke-width="1"/>
<rect x="304" y="96" width="26" height="26" fill="#26C2A8" stroke="#0c0d12" stroke-width="1"/>
<polygon points="304,96 330,96 339,87 313,87" fill="#2eeccc" stroke="#0c0d12" stroke-width="1"/>
<polygon points="330,96 339,87 339,113 330,122" fill="#146a5c" stroke="#0c0d12" stroke-width="1"/>
<rect x="200" y="122" width="26" height="26" fill="#26C2A8" stroke="#0c0d12" stroke-width="1"/>
<polygon points="200,122 226,122 235,113 209,113" fill="#2eeccc" stroke="#0c0d12" stroke-width="1"/>
<polygon points="226,122 235,113 235,139 226,148" fill="#146a5c" stroke="#0c0d12" stroke-width="1"/>
<rect x="226" y="122" width="26" height="26" fill="#26C2A8" stroke="#0c0d12" stroke-width="1"/>
<polygon points="226,122 252,122 261,113 235,113" fill="#2eeccc" stroke="#0c0d12" stroke-width="1"/>
<polygon points="252,122 261,113 261,139 252,148" fill="#146a5c" stroke="#0c0d12" stroke-width="1"/>
<rect x="252" y="122" width="26" height="26" fill="#26C2A8" stroke="#0c0d12" stroke-width="1"/>
<polygon points="252,122 278,122 287,113 261,113" fill="#2eeccc" stroke="#0c0d12" stroke-width="1"/>
<polygon points="278,122 287,113 287,139 278,148" fill="#146a5c" stroke="#0c0d12" stroke-width="1"/>
<rect x="278" y="122" width="26" height="26" fill="#26C2A8" stroke="#0c0d12" stroke-width="1"/>
<polygon points="278,122 304,122 313,113 287,113" fill="#2eeccc" stroke="#0c0d12" stroke-width="1"/>
<polygon points="304,122 313,113 313,139 304,148" fill="#146a5c" stroke="#0c0d12" stroke-width="1"/>
<rect x="304" y="122" width="26" height="26" fill="#26C2A8" stroke="#0c0d12" stroke-width="1"/>
<polygon points="304,122 330,122 339,113 313,113" fill="#2eeccc" stroke="#0c0d12" stroke-width="1"/>
<polygon points="330,122 339,113 339,139 330,148" fill="#146a5c" stroke="#0c0d12" stroke-width="1"/>
<rect x="200" y="148" width="26" height="26" fill="#26C2A8" stroke="#0c0d12" stroke-width="1"/>
<polygon points="200,148 226,148 235,139 209,139" fill="#2eeccc" stroke="#0c0d12" stroke-width="1"/>
<polygon points="226,148 235,139 235,165 226,174" fill="#146a5c" stroke="#0c0d12" stroke-width="1"/>
<rect x="304" y="148" width="26" height="26" fill="#26C2A8" stroke="#0c0d12" stroke-width="1"/>
<polygon points="304,148 330,148 339,139 313,139" fill="#2eeccc" stroke="#0c0d12" stroke-width="1"/>
<polygon points="330,148 339,139 339,165 330,174" fill="#146a5c" stroke="#0c0d12" stroke-width="1"/>
<rect x="200" y="174" width="26" height="26" fill="#26C2A8" stroke="#0c0d12" stroke-width="1"/>
<polygon points="200,174 226,174 235,165 209,165" fill="#2eeccc" stroke="#0c0d12" stroke-width="1"/>
<polygon points="226,174 235,165 235,191 226,200" fill="#146a5c" stroke="#0c0d12" stroke-width="1"/>
<rect x="304" y="174" width="26" height="26" fill="#26C2A8" stroke="#0c0d12" stroke-width="1"/>
<polygon points="304,174 330,174 339,165 313,165" fill="#2eeccc" stroke="#0c0d12" stroke-width="1"/>
<polygon points="330,174 339,165 339,191 330,200" fill="#146a5c" stroke="#0c0d12" stroke-width="1"/>
<rect x="200" y="200" width="26" height="26" fill="#26C2A8" stroke="#0c0d12" stroke-width="1"/>
<polygon points="200,200 226,200 235,191 209,191" fill="#2eeccc" stroke="#0c0d12" stroke-width="1"/>
<polygon points="226,200 235,191 235,217 226,226" fill="#146a5c" stroke="#0c0d12" stroke-width="1"/>
<rect x="304" y="200" width="26" height="26" fill="#26C2A8" stroke="#0c0d12" stroke-width="1"/>
<polygon points="304,200 330,200 339,191 313,191" fill="#2eeccc" stroke="#0c0d12" stroke-width="1"/>
<polygon points="330,200 339,191 339,217 330,226" fill="#146a5c" stroke="#0c0d12" stroke-width="1"/>
<rect x="356" y="44" width="26" height="26" fill="#C964E6" stroke="#0c0d12" stroke-width="1"/>
<polygon points="356,44 382,44 391,35 365,35" fill="#f57aff" stroke="#0c0d12" stroke-width="1"/>
<polygon points="382,44 391,35 391,61 382,70" fill="#6e377e" stroke="#0c0d12" stroke-width="1"/>
<rect x="460" y="44" width="26" height="26" fill="#C964E6" stroke="#0c0d12" stroke-width="1"/>
<polygon points="460,44 486,44 495,35 469,35" fill="#f57aff" stroke="#0c0d12" stroke-width="1"/>
<polygon points="486,44 495,35 495,61 486,70" fill="#6e377e" stroke="#0c0d12" stroke-width="1"/>
<rect x="356" y="70" width="26" height="26" fill="#C964E6" stroke="#0c0d12" stroke-width="1"/>
<polygon points="356,70 382,70 391,61 365,61" fill="#f57aff" stroke="#0c0d12" stroke-width="1"/>
<polygon points="382,70 391,61 391,87 382,96" fill="#6e377e" stroke="#0c0d12" stroke-width="1"/>
<rect x="460" y="70" width="26" height="26" fill="#C964E6" stroke="#0c0d12" stroke-width="1"/>
<polygon points="460,70 486,70 495,61 469,61" fill="#f57aff" stroke="#0c0d12" stroke-width="1"/>
<polygon points="486,70 495,61 495,87 486,96" fill="#6e377e" stroke="#0c0d12" stroke-width="1"/>
<rect x="382" y="96" width="26" height="26" fill="#C964E6" stroke="#0c0d12" stroke-width="1"/>
<polygon points="382,96 408,96 417,87 391,87" fill="#f57aff" stroke="#0c0d12" stroke-width="1"/>
<polygon points="408,96 417,87 417,113 408,122" fill="#6e377e" stroke="#0c0d12" stroke-width="1"/>
<rect x="434" y="96" width="26" height="26" fill="#C964E6" stroke="#0c0d12" stroke-width="1"/>
<polygon points="434,96 460,96 469,87 443,87" fill="#f57aff" stroke="#0c0d12" stroke-width="1"/>
<polygon points="460,96 469,87 469,113 460,122" fill="#6e377e" stroke="#0c0d12" stroke-width="1"/>
<rect x="408" y="122" width="26" height="26" fill="#C964E6" stroke="#0c0d12" stroke-width="1"/>
<polygon points="408,122 434,122 443,113 417,113" fill="#f57aff" stroke="#0c0d12" stroke-width="1"/>
<polygon points="434,122 443,113 443,139 434,148" fill="#6e377e" stroke="#0c0d12" stroke-width="1"/>
<rect x="382" y="148" width="26" height="26" fill="#C964E6" stroke="#0c0d12" stroke-width="1"/>
<polygon points="382,148 408,148 417,139 391,139" fill="#f57aff" stroke="#0c0d12" stroke-width="1"/>
<polygon points="408,148 417,139 417,165 408,174" fill="#6e377e" stroke="#0c0d12" stroke-width="1"/>
<rect x="434" y="148" width="26" height="26" fill="#C964E6" stroke="#0c0d12" stroke-width="1"/>
<polygon points="434,148 460,148 469,139 443,139" fill="#f57aff" stroke="#0c0d12" stroke-width="1"/>
<polygon points="460,148 469,139 469,165 460,174" fill="#6e377e" stroke="#0c0d12" stroke-width="1"/>
<rect x="356" y="174" width="26" height="26" fill="#C964E6" stroke="#0c0d12" stroke-width="1"/>
<polygon points="356,174 382,174 391,165 365,165" fill="#f57aff" stroke="#0c0d12" stroke-width="1"/>
<polygon points="382,174 391,165 391,191 382,200" fill="#6e377e" stroke="#0c0d12" stroke-width="1"/>
<rect x="460" y="174" width="26" height="26" fill="#C964E6" stroke="#0c0d12" stroke-width="1"/>
<polygon points="460,174 486,174 495,165 469,165" fill="#f57aff" stroke="#0c0d12" stroke-width="1"/>
<polygon points="486,174 495,165 495,191 486,200" fill="#6e377e" stroke="#0c0d12" stroke-width="1"/>
<rect x="356" y="200" width="26" height="26" fill="#C964E6" stroke="#0c0d12" stroke-width="1"/>
<polygon points="356,200 382,200 391,191 365,191" fill="#f57aff" stroke="#0c0d12" stroke-width="1"/>
<polygon points="382,200 391,191 391,217 382,226" fill="#6e377e" stroke="#0c0d12" stroke-width="1"/>
<rect x="460" y="200" width="26" height="26" fill="#C964E6" stroke="#0c0d12" stroke-width="1"/>
<polygon points="460,200 486,200 495,191 469,191" fill="#f57aff" stroke="#0c0d12" stroke-width="1"/>
<polygon points="486,200 495,191 495,217 486,226" fill="#6e377e" stroke="#0c0d12" stroke-width="1"/>
<rect x="538" y="44" width="26" height="26" fill="#3F7CE0" stroke="#0c0d12" stroke-width="1"/>
<polygon points="538,44 564,44 573,35 547,35" fill="#4c97ff" stroke="#0c0d12" stroke-width="1"/>
<polygon points="564,44 573,35 573,61 564,70" fill="#22447b" stroke="#0c0d12" stroke-width="1"/>
<rect x="564" y="44" width="26" height="26" fill="#3F7CE0" stroke="#0c0d12" stroke-width="1"/>
<polygon points="564,44 590,44 599,35 573,35" fill="#4c97ff" stroke="#0c0d12" stroke-width="1"/>
<polygon points="590,44 599,35 599,61 590,70" fill="#22447b" stroke="#0c0d12" stroke-width="1"/>
<rect x="590" y="44" width="26" height="26" fill="#3F7CE0" stroke="#0c0d12" stroke-width="1"/>
<polygon points="590,44 616,44 625,35 599,35" fill="#4c97ff" stroke="#0c0d12" stroke-width="1"/>
<polygon points="616,44 625,35 625,61 616,70" fill="#22447b" stroke="#0c0d12" stroke-width="1"/>
<rect x="616" y="44" width="26" height="26" fill="#3F7CE0" stroke="#0c0d12" stroke-width="1"/>
<polygon points="616,44 642,44 651,35 625,35" fill="#4c97ff" stroke="#0c0d12" stroke-width="1"/>
<polygon points="642,44 651,35 651,61 642,70" fill="#22447b" stroke="#0c0d12" stroke-width="1"/>
<rect x="512" y="70" width="26" height="26" fill="#3F7CE0" stroke="#0c0d12" stroke-width="1"/>
<polygon points="512,70 538,70 547,61 521,61" fill="#4c97ff" stroke="#0c0d12" stroke-width="1"/>
<polygon points="538,70 547,61 547,87 538,96" fill="#22447b" stroke="#0c0d12" stroke-width="1"/>
<rect x="512" y="96" width="26" height="26" fill="#3F7CE0" stroke="#0c0d12" stroke-width="1"/>
<polygon points="512,96 538,96 547,87 521,87" fill="#4c97ff" stroke="#0c0d12" stroke-width="1"/>
<polygon points="538,96 547,87 547,113 538,122" fill="#22447b" stroke="#0c0d12" stroke-width="1"/>
<rect x="512" y="122" width="26" height="26" fill="#3F7CE0" stroke="#0c0d12" stroke-width="1"/>
<polygon points="512,122 538,122 547,113 521,113" fill="#4c97ff" stroke="#0c0d12" stroke-width="1"/>
<polygon points="538,122 547,113 547,139 538,148" fill="#22447b" stroke="#0c0d12" stroke-width="1"/>
<rect x="512" y="148" width="26" height="26" fill="#3F7CE0" stroke="#0c0d12" stroke-width="1"/>
<polygon points="512,148 538,148 547,139 521,139" fill="#4c97ff" stroke="#0c0d12" stroke-width="1"/>
<polygon points="538,148 547,139 547,165 538,174" fill="#22447b" stroke="#0c0d12" stroke-width="1"/>
<rect x="512" y="174" width="26" height="26" fill="#3F7CE0" stroke="#0c0d12" stroke-width="1"/>
<polygon points="512,174 538,174 547,165 521,165" fill="#4c97ff" stroke="#0c0d12" stroke-width="1"/>
<polygon points="538,174 547,165 547,191 538,200" fill="#22447b" stroke="#0c0d12" stroke-width="1"/>
<rect x="538" y="200" width="26" height="26" fill="#3F7CE0" stroke="#0c0d12" stroke-width="1"/>
<polygon points="538,200 564,200 573,191 547,191" fill="#4c97ff" stroke="#0c0d12" stroke-width="1"/>
<polygon points="564,200 573,191 573,217 564,226" fill="#22447b" stroke="#0c0d12" stroke-width="1"/>
<rect x="564" y="200" width="26" height="26" fill="#3F7CE0" stroke="#0c0d12" stroke-width="1"/>
<polygon points="564,200 590,200 599,191 573,191" fill="#4c97ff" stroke="#0c0d12" stroke-width="1"/>
<polygon points="590,200 599,191 599,217 590,226" fill="#22447b" stroke="#0c0d12" stroke-width="1"/>
<rect x="590" y="200" width="26" height="26" fill="#3F7CE0" stroke="#0c0d12" stroke-width="1"/>
<polygon points="590,200 616,200 625,191 599,191" fill="#4c97ff" stroke="#0c0d12" stroke-width="1"/>
<polygon points="616,200 625,191 625,217 616,226" fill="#22447b" stroke="#0c0d12" stroke-width="1"/>
<rect x="616" y="200" width="26" height="26" fill="#3F7CE0" stroke="#0c0d12" stroke-width="1"/>
<polygon points="616,200 642,200 651,191 625,191" fill="#4c97ff" stroke="#0c0d12" stroke-width="1"/>
<polygon points="642,200 651,191 651,217 642,226" fill="#22447b" stroke="#0c0d12" stroke-width="1"/>
<rect x="668" y="44" width="26" height="26" fill="#22A88B" stroke="#0c0d12" stroke-width="1"/>
<polygon points="668,44 694,44 703,35 677,35" fill="#29cca9" stroke="#0c0d12" stroke-width="1"/>
<polygon points="694,44 703,35 703,61 694,70" fill="#125c4c" stroke="#0c0d12" stroke-width="1"/>
<rect x="772" y="44" width="26" height="26" fill="#22A88B" stroke="#0c0d12" stroke-width="1"/>
<polygon points="772,44 798,44 807,35 781,35" fill="#29cca9" stroke="#0c0d12" stroke-width="1"/>
<polygon points="798,44 807,35 807,61 798,70" fill="#125c4c" stroke="#0c0d12" stroke-width="1"/>
<rect x="668" y="70" width="26" height="26" fill="#22A88B" stroke="#0c0d12" stroke-width="1"/>
<polygon points="668,70 694,70 703,61 677,61" fill="#29cca9" stroke="#0c0d12" stroke-width="1"/>
<polygon points="694,70 703,61 703,87 694,96" fill="#125c4c" stroke="#0c0d12" stroke-width="1"/>
<rect x="772" y="70" width="26" height="26" fill="#22A88B" stroke="#0c0d12" stroke-width="1"/>
<polygon points="772,70 798,70 807,61 781,61" fill="#29cca9" stroke="#0c0d12" stroke-width="1"/>
<polygon points="798,70 807,61 807,87 798,96" fill="#125c4c" stroke="#0c0d12" stroke-width="1"/>
<rect x="668" y="96" width="26" height="26" fill="#22A88B" stroke="#0c0d12" stroke-width="1"/>
<polygon points="668,96 694,96 703,87 677,87" fill="#29cca9" stroke="#0c0d12" stroke-width="1"/>
<polygon points="694,96 703,87 703,113 694,122" fill="#125c4c" stroke="#0c0d12" stroke-width="1"/>
<rect x="772" y="96" width="26" height="26" fill="#22A88B" stroke="#0c0d12" stroke-width="1"/>
<polygon points="772,96 798,96 807,87 781,87" fill="#29cca9" stroke="#0c0d12" stroke-width="1"/>
<polygon points="798,96 807,87 807,113 798,122" fill="#125c4c" stroke="#0c0d12" stroke-width="1"/>
<rect x="668" y="122" width="26" height="26" fill="#22A88B" stroke="#0c0d12" stroke-width="1"/>
<polygon points="668,122 694,122 703,113 677,113" fill="#29cca9" stroke="#0c0d12" stroke-width="1"/>
<polygon points="694,122 703,113 703,139 694,148" fill="#125c4c" stroke="#0c0d12" stroke-width="1"/>
<rect x="694" y="122" width="26" height="26" fill="#22A88B" stroke="#0c0d12" stroke-width="1"/>
<polygon points="694,122 720,122 729,113 703,113" fill="#29cca9" stroke="#0c0d12" stroke-width="1"/>
<polygon points="720,122 729,113 729,139 720,148" fill="#125c4c" stroke="#0c0d12" stroke-width="1"/>
<rect x="720" y="122" width="26" height="26" fill="#22A88B" stroke="#0c0d12" stroke-width="1"/>
<polygon points="720,122 746,122 755,113 729,113" fill="#29cca9" stroke="#0c0d12" stroke-width="1"/>
<polygon points="746,122 755,113 755,139 746,148" fill="#125c4c" stroke="#0c0d12" stroke-width="1"/>
<rect x="746" y="122" width="26" height="26" fill="#22A88B" stroke="#0c0d12" stroke-width="1"/>
<polygon points="746,122 772,122 781,113 755,113" fill="#29cca9" stroke="#0c0d12" stroke-width="1"/>
<polygon points="772,122 781,113 781,139 772,148" fill="#125c4c" stroke="#0c0d12" stroke-width="1"/>
<rect x="772" y="122" width="26" height="26" fill="#22A88B" stroke="#0c0d12" stroke-width="1"/>
<polygon points="772,122 798,122 807,113 781,113" fill="#29cca9" stroke="#0c0d12" stroke-width="1"/>
<polygon points="798,122 807,113 807,139 798,148" fill="#125c4c" stroke="#0c0d12" stroke-width="1"/>
<rect x="668" y="148" width="26" height="26" fill="#22A88B" stroke="#0c0d12" stroke-width="1"/>
<polygon points="668,148 694,148 703,139 677,139" fill="#29cca9" stroke="#0c0d12" stroke-width="1"/>
<polygon points="694,148 703,139 703,165 694,174" fill="#125c4c" stroke="#0c0d12" stroke-width="1"/>
<rect x="772" y="148" width="26" height="26" fill="#22A88B" stroke="#0c0d12" stroke-width="1"/>
<polygon points="772,148 798,148 807,139 781,139" fill="#29cca9" stroke="#0c0d12" stroke-width="1"/>
<polygon points="798,148 807,139 807,165 798,174" fill="#125c4c" stroke="#0c0d12" stroke-width="1"/>
<rect x="668" y="174" width="26" height="26" fill="#22A88B" stroke="#0c0d12" stroke-width="1"/>
<polygon points="668,174 694,174 703,165 677,165" fill="#29cca9" stroke="#0c0d12" stroke-width="1"/>
<polygon points="694,174 703,165 703,191 694,200" fill="#125c4c" stroke="#0c0d12" stroke-width="1"/>
<rect x="772" y="174" width="26" height="26" fill="#22A88B" stroke="#0c0d12" stroke-width="1"/>
<polygon points="772,174 798,174 807,165 781,165" fill="#29cca9" stroke="#0c0d12" stroke-width="1"/>
<polygon points="798,174 807,165 807,191 798,200" fill="#125c4c" stroke="#0c0d12" stroke-width="1"/>
<rect x="668" y="200" width="26" height="26" fill="#22A88B" stroke="#0c0d12" stroke-width="1"/>
<polygon points="668,200 694,200 703,191 677,191" fill="#29cca9" stroke="#0c0d12" stroke-width="1"/>
<polygon points="694,200 703,191 703,217 694,226" fill="#125c4c" stroke="#0c0d12" stroke-width="1"/>
<rect x="772" y="200" width="26" height="26" fill="#22A88B" stroke="#0c0d12" stroke-width="1"/>
<polygon points="772,200 798,200 807,191 781,191" fill="#29cca9" stroke="#0c0d12" stroke-width="1"/>
<polygon points="798,200 807,191 807,217 798,226" fill="#125c4c" stroke="#0c0d12" stroke-width="1"/>
<rect x="850" y="44" width="26" height="26" fill="#26C2A8" stroke="#0c0d12" stroke-width="1"/>
<polygon points="850,44 876,44 885,35 859,35" fill="#2eeccc" stroke="#0c0d12" stroke-width="1"/>
<polygon points="876,44 885,35 885,61 876,70" fill="#146a5c" stroke="#0c0d12" stroke-width="1"/>
<rect x="876" y="44" width="26" height="26" fill="#26C2A8" stroke="#0c0d12" stroke-width="1"/>
<polygon points="876,44 902,44 911,35 885,35" fill="#2eeccc" stroke="#0c0d12" stroke-width="1"/>
<polygon points="902,44 911,35 911,61 902,70" fill="#146a5c" stroke="#0c0d12" stroke-width="1"/>
<rect x="902" y="44" width="26" height="26" fill="#26C2A8" stroke="#0c0d12" stroke-width="1"/>
<polygon points="902,44 928,44 937,35 911,35" fill="#2eeccc" stroke="#0c0d12" stroke-width="1"/>
<polygon points="928,44 937,35 937,61 928,70" fill="#146a5c" stroke="#0c0d12" stroke-width="1"/>
<rect x="824" y="70" width="26" height="26" fill="#26C2A8" stroke="#0c0d12" stroke-width="1"/>
<polygon points="824,70 850,70 859,61 833,61" fill="#2eeccc" stroke="#0c0d12" stroke-width="1"/>
<polygon points="850,70 859,61 859,87 850,96" fill="#146a5c" stroke="#0c0d12" stroke-width="1"/>
<rect x="928" y="70" width="26" height="26" fill="#26C2A8" stroke="#0c0d12" stroke-width="1"/>
<polygon points="928,70 954,70 963,61 937,61" fill="#2eeccc" stroke="#0c0d12" stroke-width="1"/>
<polygon points="954,70 963,61 963,87 954,96" fill="#146a5c" stroke="#0c0d12" stroke-width="1"/>
<rect x="824" y="96" width="26" height="26" fill="#26C2A8" stroke="#0c0d12" stroke-width="1"/>
<polygon points="824,96 850,96 859,87 833,87" fill="#2eeccc" stroke="#0c0d12" stroke-width="1"/>
<polygon points="850,96 859,87 859,113 850,122" fill="#146a5c" stroke="#0c0d12" stroke-width="1"/>
<rect x="928" y="96" width="26" height="26" fill="#26C2A8" stroke="#0c0d12" stroke-width="1"/>
<polygon points="928,96 954,96 963,87 937,87" fill="#2eeccc" stroke="#0c0d12" stroke-width="1"/>
<polygon points="954,96 963,87 963,113 954,122" fill="#146a5c" stroke="#0c0d12" stroke-width="1"/>
<rect x="824" y="122" width="26" height="26" fill="#26C2A8" stroke="#0c0d12" stroke-width="1"/>
<polygon points="824,122 850,122 859,113 833,113" fill="#2eeccc" stroke="#0c0d12" stroke-width="1"/>
<polygon points="850,122 859,113 859,139 850,148" fill="#146a5c" stroke="#0c0d12" stroke-width="1"/>
<rect x="850" y="122" width="26" height="26" fill="#26C2A8" stroke="#0c0d12" stroke-width="1"/>
<polygon points="850,122 876,122 885,113 859,113" fill="#2eeccc" stroke="#0c0d12" stroke-width="1"/>
<polygon points="876,122 885,113 885,139 876,148" fill="#146a5c" stroke="#0c0d12" stroke-width="1"/>
<rect x="876" y="122" width="26" height="26" fill="#26C2A8" stroke="#0c0d12" stroke-width="1"/>
<polygon points="876,122 902,122 911,113 885,113" fill="#2eeccc" stroke="#0c0d12" stroke-width="1"/>
<polygon points="902,122 911,113 911,139 902,148" fill="#146a5c" stroke="#0c0d12" stroke-width="1"/>
<rect x="902" y="122" width="26" height="26" fill="#26C2A8" stroke="#0c0d12" stroke-width="1"/>
<polygon points="902,122 928,122 937,113 911,113" fill="#2eeccc" stroke="#0c0d12" stroke-width="1"/>
<polygon points="928,122 937,113 937,139 928,148" fill="#146a5c" stroke="#0c0d12" stroke-width="1"/>
<rect x="928" y="122" width="26" height="26" fill="#26C2A8" stroke="#0c0d12" stroke-width="1"/>
<polygon points="928,122 954,122 963,113 937,113" fill="#2eeccc" stroke="#0c0d12" stroke-width="1"/>
<polygon points="954,122 963,113 963,139 954,148" fill="#146a5c" stroke="#0c0d12" stroke-width="1"/>
<rect x="824" y="148" width="26" height="26" fill="#26C2A8" stroke="#0c0d12" stroke-width="1"/>
<polygon points="824,148 850,148 859,139 833,139" fill="#2eeccc" stroke="#0c0d12" stroke-width="1"/>
<polygon points="850,148 859,139 859,165 850,174" fill="#146a5c" stroke="#0c0d12" stroke-width="1"/>
<rect x="928" y="148" width="26" height="26" fill="#26C2A8" stroke="#0c0d12" stroke-width="1"/>
<polygon points="928,148 954,148 963,139 937,139" fill="#2eeccc" stroke="#0c0d12" stroke-width="1"/>
<polygon points="954,148 963,139 963,165 954,174" fill="#146a5c" stroke="#0c0d12" stroke-width="1"/>
<rect x="824" y="174" width="26" height="26" fill="#26C2A8" stroke="#0c0d12" stroke-width="1"/>
<polygon points="824,174 850,174 859,165 833,165" fill="#2eeccc" stroke="#0c0d12" stroke-width="1"/>
<polygon points="850,174 859,165 859,191 850,200" fill="#146a5c" stroke="#0c0d12" stroke-width="1"/>
<rect x="928" y="174" width="26" height="26" fill="#26C2A8" stroke="#0c0d12" stroke-width="1"/>
<polygon points="928,174 954,174 963,165 937,165" fill="#2eeccc" stroke="#0c0d12" stroke-width="1"/>
<polygon points="954,174 963,165 963,191 954,200" fill="#146a5c" stroke="#0c0d12" stroke-width="1"/>
<rect x="824" y="200" width="26" height="26" fill="#26C2A8" stroke="#0c0d12" stroke-width="1"/>
<polygon points="824,200 850,200 859,191 833,191" fill="#2eeccc" stroke="#0c0d12" stroke-width="1"/>
<polygon points="850,200 859,191 859,217 850,226" fill="#146a5c" stroke="#0c0d12" stroke-width="1"/>
<rect x="928" y="200" width="26" height="26" fill="#26C2A8" stroke="#0c0d12" stroke-width="1"/>
<polygon points="928,200 954,200 963,191 937,191" fill="#2eeccc" stroke="#0c0d12" stroke-width="1"/>
<polygon points="954,200 963,191 963,217 954,226" fill="#146a5c" stroke="#0c0d12" stroke-width="1"/>
<rect x="980" y="44" width="26" height="26" fill="#7E3AE5" stroke="#0c0d12" stroke-width="1"/>
<polygon points="980,44 1006,44 1015,35 989,35" fill="#9946ff" stroke="#0c0d12" stroke-width="1"/>
<polygon points="1006,44 1015,35 1015,61 1006,70" fill="#451f7d" stroke="#0c0d12" stroke-width="1"/>
<rect x="1006" y="44" width="26" height="26" fill="#7E3AE5" stroke="#0c0d12" stroke-width="1"/>
<polygon points="1006,44 1032,44 1041,35 1015,35" fill="#9946ff" stroke="#0c0d12" stroke-width="1"/>
<polygon points="1032,44 1041,35 1041,61 1032,70" fill="#451f7d" stroke="#0c0d12" stroke-width="1"/>
<rect x="1032" y="44" width="26" height="26" fill="#7E3AE5" stroke="#0c0d12" stroke-width="1"/>
<polygon points="1032,44 1058,44 1067,35 1041,35" fill="#9946ff" stroke="#0c0d12" stroke-width="1"/>
<polygon points="1058,44 1067,35 1067,61 1058,70" fill="#451f7d" stroke="#0c0d12" stroke-width="1"/>
<rect x="1058" y="44" width="26" height="26" fill="#7E3AE5" stroke="#0c0d12" stroke-width="1"/>
<polygon points="1058,44 1084,44 1093,35 1067,35" fill="#9946ff" stroke="#0c0d12" stroke-width="1"/>
<polygon points="1084,44 1093,35 1093,61 1084,70" fill="#451f7d" stroke="#0c0d12" stroke-width="1"/>
<rect x="1084" y="44" width="26" height="26" fill="#7E3AE5" stroke="#0c0d12" stroke-width="1"/>
<polygon points="1084,44 1110,44 1119,35 1093,35" fill="#9946ff" stroke="#0c0d12" stroke-width="1"/>
<polygon points="1110,44 1119,35 1119,61 1110,70" fill="#451f7d" stroke="#0c0d12" stroke-width="1"/>
<rect x="1032" y="70" width="26" height="26" fill="#7E3AE5" stroke="#0c0d12" stroke-width="1"/>
<polygon points="1032,70 1058,70 1067,61 1041,61" fill="#9946ff" stroke="#0c0d12" stroke-width="1"/>
<polygon points="1058,70 1067,61 1067,87 1058,96" fill="#451f7d" stroke="#0c0d12" stroke-width="1"/>
<rect x="1032" y="96" width="26" height="26" fill="#7E3AE5" stroke="#0c0d12" stroke-width="1"/>
<polygon points="1032,96 1058,96 1067,87 1041,87" fill="#9946ff" stroke="#0c0d12" stroke-width="1"/>
<polygon points="1058,96 1067,87 1067,113 1058,122" fill="#451f7d" stroke="#0c0d12" stroke-width="1"/>
<rect x="1032" y="122" width="26" height="26" fill="#7E3AE5" stroke="#0c0d12" stroke-width="1"/>
<polygon points="1032,122 1058,122 1067,113 1041,113" fill="#9946ff" stroke="#0c0d12" stroke-width="1"/>
<polygon points="1058,122 1067,113 1067,139 1058,148" fill="#451f7d" stroke="#0c0d12" stroke-width="1"/>
<rect x="1032" y="148" width="26" height="26" fill="#7E3AE5" stroke="#0c0d12" stroke-width="1"/>
<polygon points="1032,148 1058,148 1067,139 1041,139" fill="#9946ff" stroke="#0c0d12" stroke-width="1"/>
<polygon points="1058,148 1067,139 1067,165 1058,174" fill="#451f7d" stroke="#0c0d12" stroke-width="1"/>
<rect x="1032" y="174" width="26" height="26" fill="#7E3AE5" stroke="#0c0d12" stroke-width="1"/>
<polygon points="1032,174 1058,174 1067,165 1041,165" fill="#9946ff" stroke="#0c0d12" stroke-width="1"/>
<polygon points="1058,174 1067,165 1067,191 1058,200" fill="#451f7d" stroke="#0c0d12" stroke-width="1"/>
<rect x="1032" y="200" width="26" height="26" fill="#7E3AE5" stroke="#0c0d12" stroke-width="1"/>
<polygon points="1032,200 1058,200 1067,191 1041,191" fill="#9946ff" stroke="#0c0d12" stroke-width="1"/>
<polygon points="1058,200 1067,191 1067,217 1058,226" fill="#451f7d" stroke="#0c0d12" stroke-width="1"/>
</svg>